<mxfile host="app.diagrams.net" modified="2020-12-09T10:57:26.812Z" agent="5.0 (Windows)" etag="RyKEL99I6LmZLUi8BPQW" version="13.11.0" type="github">
  <diagram id="krC19Hut35NvwOSP1ype" name="Page-1">
    <mxGraphModel dx="1865" dy="575" grid="1" gridSize="10" guides="1" tooltips="1" connect="1" arrows="1" fold="1" page="1" pageScale="1" pageWidth="827" pageHeight="1169" math="0" shadow="0">
      <root>
        <mxCell id="0" />
        <mxCell id="1" parent="0" />
        <mxCell id="EGsElNwf6ltDPUh6iHsV-1" value="&lt;h1&gt;Enoncé&lt;/h1&gt;&lt;p&gt;Une banque compte plusieurs agences réparties sur le territoire français. Une banque est caractérisée par le nom de son directeur général, son capital global, son propre nom et de l&#39;adresse de son siège social. Le directeur général est identifié par son nom, son prénom et son revenu.&lt;/p&gt;&lt;p&gt;Une agence a un numéro d&#39;agence et une adresse. Chaque agence emploie plusieurs employés, qui se caractérisent par leurs nom, prénom et date d&#39;embauche. Les employés peuvent demander leur mutation d&#39;une agence à une autre, mais un employé ne peut travailler que dans une seule agence. Les employés d&#39;une agence ne font que gérer des clients.&lt;br&gt;&lt;/p&gt;&lt;p&gt;Un client ne peut avoir des comptes que dans une seule agence de la banque. Chaque nouveau client se voit systématiquement attribuer un employé de l&#39;agence (conseiller). Les clients ont un nom, un prénom et une adresse. Les comptes sont de nature différente selon qu&#39;ils soient des comptes d&#39;épargne ou non (comptes courants).&lt;/p&gt;&lt;p&gt;Question : Donnez un diagramme de classes.&lt;/p&gt;" style="text;html=1;strokeColor=none;fillColor=none;spacing=5;spacingTop=-20;whiteSpace=wrap;overflow=hidden;rounded=0;" vertex="1" parent="1">
          <mxGeometry x="10" y="10" width="810" height="220" as="geometry" />
        </mxCell>
        <mxCell id="EGsElNwf6ltDPUh6iHsV-2" value="Banque" style="swimlane;fontStyle=1;align=center;verticalAlign=top;childLayout=stackLayout;horizontal=1;startSize=26;horizontalStack=0;resizeParent=1;resizeParentMax=0;resizeLast=0;collapsible=1;marginBottom=0;" vertex="1" parent="1">
          <mxGeometry x="240" y="240" width="160" height="86" as="geometry" />
        </mxCell>
        <mxCell id="EGsElNwf6ltDPUh6iHsV-3" value="- capitalGlobal: float" style="text;strokeColor=none;fillColor=none;align=left;verticalAlign=top;spacingLeft=4;spacingRight=4;overflow=hidden;rotatable=0;points=[[0,0.5],[1,0.5]];portConstraint=eastwest;" vertex="1" parent="EGsElNwf6ltDPUh6iHsV-2">
          <mxGeometry y="26" width="160" height="26" as="geometry" />
        </mxCell>
        <mxCell id="EGsElNwf6ltDPUh6iHsV-4" value="" style="line;strokeWidth=1;fillColor=none;align=left;verticalAlign=middle;spacingTop=-1;spacingLeft=3;spacingRight=3;rotatable=0;labelPosition=right;points=[];portConstraint=eastwest;" vertex="1" parent="EGsElNwf6ltDPUh6iHsV-2">
          <mxGeometry y="52" width="160" height="8" as="geometry" />
        </mxCell>
        <mxCell id="EGsElNwf6ltDPUh6iHsV-5" value="+ method(type): type" style="text;strokeColor=none;fillColor=none;align=left;verticalAlign=top;spacingLeft=4;spacingRight=4;overflow=hidden;rotatable=0;points=[[0,0.5],[1,0.5]];portConstraint=eastwest;" vertex="1" parent="EGsElNwf6ltDPUh6iHsV-2">
          <mxGeometry y="60" width="160" height="26" as="geometry" />
        </mxCell>
        <mxCell id="EGsElNwf6ltDPUh6iHsV-6" value="Agence" style="swimlane;fontStyle=1;align=center;verticalAlign=top;childLayout=stackLayout;horizontal=1;startSize=26;horizontalStack=0;resizeParent=1;resizeParentMax=0;resizeLast=0;collapsible=1;marginBottom=0;" vertex="1" parent="1">
          <mxGeometry x="240" y="470" width="160" height="86" as="geometry" />
        </mxCell>
        <mxCell id="EGsElNwf6ltDPUh6iHsV-7" value="+ field: type" style="text;strokeColor=none;fillColor=none;align=left;verticalAlign=top;spacingLeft=4;spacingRight=4;overflow=hidden;rotatable=0;points=[[0,0.5],[1,0.5]];portConstraint=eastwest;" vertex="1" parent="EGsElNwf6ltDPUh6iHsV-6">
          <mxGeometry y="26" width="160" height="26" as="geometry" />
        </mxCell>
        <mxCell id="EGsElNwf6ltDPUh6iHsV-8" value="" style="line;strokeWidth=1;fillColor=none;align=left;verticalAlign=middle;spacingTop=-1;spacingLeft=3;spacingRight=3;rotatable=0;labelPosition=right;points=[];portConstraint=eastwest;" vertex="1" parent="EGsElNwf6ltDPUh6iHsV-6">
          <mxGeometry y="52" width="160" height="8" as="geometry" />
        </mxCell>
        <mxCell id="EGsElNwf6ltDPUh6iHsV-9" value="+ method(type): type" style="text;strokeColor=none;fillColor=none;align=left;verticalAlign=top;spacingLeft=4;spacingRight=4;overflow=hidden;rotatable=0;points=[[0,0.5],[1,0.5]];portConstraint=eastwest;" vertex="1" parent="EGsElNwf6ltDPUh6iHsV-6">
          <mxGeometry y="60" width="160" height="26" as="geometry" />
        </mxCell>
        <mxCell id="EGsElNwf6ltDPUh6iHsV-10" value="Directeur" style="swimlane;fontStyle=1;align=center;verticalAlign=top;childLayout=stackLayout;horizontal=1;startSize=26;horizontalStack=0;resizeParent=1;resizeParentMax=0;resizeLast=0;collapsible=1;marginBottom=0;" vertex="1" parent="1">
          <mxGeometry x="490" y="400" width="160" height="86" as="geometry" />
        </mxCell>
        <mxCell id="EGsElNwf6ltDPUh6iHsV-11" value="- revenu: float" style="text;strokeColor=none;fillColor=none;align=left;verticalAlign=top;spacingLeft=4;spacingRight=4;overflow=hidden;rotatable=0;points=[[0,0.5],[1,0.5]];portConstraint=eastwest;" vertex="1" parent="EGsElNwf6ltDPUh6iHsV-10">
          <mxGeometry y="26" width="160" height="26" as="geometry" />
        </mxCell>
        <mxCell id="EGsElNwf6ltDPUh6iHsV-12" value="" style="line;strokeWidth=1;fillColor=none;align=left;verticalAlign=middle;spacingTop=-1;spacingLeft=3;spacingRight=3;rotatable=0;labelPosition=right;points=[];portConstraint=eastwest;" vertex="1" parent="EGsElNwf6ltDPUh6iHsV-10">
          <mxGeometry y="52" width="160" height="8" as="geometry" />
        </mxCell>
        <mxCell id="EGsElNwf6ltDPUh6iHsV-13" value="+ method(type): type" style="text;strokeColor=none;fillColor=none;align=left;verticalAlign=top;spacingLeft=4;spacingRight=4;overflow=hidden;rotatable=0;points=[[0,0.5],[1,0.5]];portConstraint=eastwest;" vertex="1" parent="EGsElNwf6ltDPUh6iHsV-10">
          <mxGeometry y="60" width="160" height="26" as="geometry" />
        </mxCell>
        <mxCell id="EGsElNwf6ltDPUh6iHsV-14" value="Adresse" style="swimlane;fontStyle=1;align=center;verticalAlign=top;childLayout=stackLayout;horizontal=1;startSize=26;horizontalStack=0;resizeParent=1;resizeParentMax=0;resizeLast=0;collapsible=1;marginBottom=0;" vertex="1" parent="1">
          <mxGeometry x="240" y="640" width="160" height="86" as="geometry" />
        </mxCell>
        <mxCell id="EGsElNwf6ltDPUh6iHsV-15" value="+ field: type" style="text;strokeColor=none;fillColor=none;align=left;verticalAlign=top;spacingLeft=4;spacingRight=4;overflow=hidden;rotatable=0;points=[[0,0.5],[1,0.5]];portConstraint=eastwest;" vertex="1" parent="EGsElNwf6ltDPUh6iHsV-14">
          <mxGeometry y="26" width="160" height="26" as="geometry" />
        </mxCell>
        <mxCell id="EGsElNwf6ltDPUh6iHsV-16" value="" style="line;strokeWidth=1;fillColor=none;align=left;verticalAlign=middle;spacingTop=-1;spacingLeft=3;spacingRight=3;rotatable=0;labelPosition=right;points=[];portConstraint=eastwest;" vertex="1" parent="EGsElNwf6ltDPUh6iHsV-14">
          <mxGeometry y="52" width="160" height="8" as="geometry" />
        </mxCell>
        <mxCell id="EGsElNwf6ltDPUh6iHsV-17" value="+ method(type): type" style="text;strokeColor=none;fillColor=none;align=left;verticalAlign=top;spacingLeft=4;spacingRight=4;overflow=hidden;rotatable=0;points=[[0,0.5],[1,0.5]];portConstraint=eastwest;" vertex="1" parent="EGsElNwf6ltDPUh6iHsV-14">
          <mxGeometry y="60" width="160" height="26" as="geometry" />
        </mxCell>
        <mxCell id="EGsElNwf6ltDPUh6iHsV-18" value="Compte" style="swimlane;fontStyle=3;align=center;verticalAlign=top;childLayout=stackLayout;horizontal=1;startSize=26;horizontalStack=0;resizeParent=1;resizeParentMax=0;resizeLast=0;collapsible=1;marginBottom=0;" vertex="1" parent="1">
          <mxGeometry x="-120" y="470" width="160" height="86" as="geometry" />
        </mxCell>
        <mxCell id="EGsElNwf6ltDPUh6iHsV-19" value="+ field: type" style="text;strokeColor=none;fillColor=none;align=left;verticalAlign=top;spacingLeft=4;spacingRight=4;overflow=hidden;rotatable=0;points=[[0,0.5],[1,0.5]];portConstraint=eastwest;" vertex="1" parent="EGsElNwf6ltDPUh6iHsV-18">
          <mxGeometry y="26" width="160" height="26" as="geometry" />
        </mxCell>
        <mxCell id="EGsElNwf6ltDPUh6iHsV-20" value="" style="line;strokeWidth=1;fillColor=none;align=left;verticalAlign=middle;spacingTop=-1;spacingLeft=3;spacingRight=3;rotatable=0;labelPosition=right;points=[];portConstraint=eastwest;" vertex="1" parent="EGsElNwf6ltDPUh6iHsV-18">
          <mxGeometry y="52" width="160" height="8" as="geometry" />
        </mxCell>
        <mxCell id="EGsElNwf6ltDPUh6iHsV-21" value="+ method(type): type" style="text;strokeColor=none;fillColor=none;align=left;verticalAlign=top;spacingLeft=4;spacingRight=4;overflow=hidden;rotatable=0;points=[[0,0.5],[1,0.5]];portConstraint=eastwest;" vertex="1" parent="EGsElNwf6ltDPUh6iHsV-18">
          <mxGeometry y="60" width="160" height="26" as="geometry" />
        </mxCell>
        <mxCell id="EGsElNwf6ltDPUh6iHsV-22" value="CompteEpargne" style="swimlane;fontStyle=1;align=center;verticalAlign=top;childLayout=stackLayout;horizontal=1;startSize=26;horizontalStack=0;resizeParent=1;resizeParentMax=0;resizeLast=0;collapsible=1;marginBottom=0;" vertex="1" parent="1">
          <mxGeometry x="-240" y="640" width="160" height="86" as="geometry" />
        </mxCell>
        <mxCell id="EGsElNwf6ltDPUh6iHsV-23" value="+ field: type" style="text;strokeColor=none;fillColor=none;align=left;verticalAlign=top;spacingLeft=4;spacingRight=4;overflow=hidden;rotatable=0;points=[[0,0.5],[1,0.5]];portConstraint=eastwest;" vertex="1" parent="EGsElNwf6ltDPUh6iHsV-22">
          <mxGeometry y="26" width="160" height="26" as="geometry" />
        </mxCell>
        <mxCell id="EGsElNwf6ltDPUh6iHsV-24" value="" style="line;strokeWidth=1;fillColor=none;align=left;verticalAlign=middle;spacingTop=-1;spacingLeft=3;spacingRight=3;rotatable=0;labelPosition=right;points=[];portConstraint=eastwest;" vertex="1" parent="EGsElNwf6ltDPUh6iHsV-22">
          <mxGeometry y="52" width="160" height="8" as="geometry" />
        </mxCell>
        <mxCell id="EGsElNwf6ltDPUh6iHsV-25" value="+ method(type): type" style="text;strokeColor=none;fillColor=none;align=left;verticalAlign=top;spacingLeft=4;spacingRight=4;overflow=hidden;rotatable=0;points=[[0,0.5],[1,0.5]];portConstraint=eastwest;" vertex="1" parent="EGsElNwf6ltDPUh6iHsV-22">
          <mxGeometry y="60" width="160" height="26" as="geometry" />
        </mxCell>
        <mxCell id="EGsElNwf6ltDPUh6iHsV-26" value="CompteCourant" style="swimlane;fontStyle=1;align=center;verticalAlign=top;childLayout=stackLayout;horizontal=1;startSize=26;horizontalStack=0;resizeParent=1;resizeParentMax=0;resizeLast=0;collapsible=1;marginBottom=0;" vertex="1" parent="1">
          <mxGeometry y="640" width="160" height="86" as="geometry" />
        </mxCell>
        <mxCell id="EGsElNwf6ltDPUh6iHsV-27" value="+ field: type" style="text;strokeColor=none;fillColor=none;align=left;verticalAlign=top;spacingLeft=4;spacingRight=4;overflow=hidden;rotatable=0;points=[[0,0.5],[1,0.5]];portConstraint=eastwest;" vertex="1" parent="EGsElNwf6ltDPUh6iHsV-26">
          <mxGeometry y="26" width="160" height="26" as="geometry" />
        </mxCell>
        <mxCell id="EGsElNwf6ltDPUh6iHsV-28" value="" style="line;strokeWidth=1;fillColor=none;align=left;verticalAlign=middle;spacingTop=-1;spacingLeft=3;spacingRight=3;rotatable=0;labelPosition=right;points=[];portConstraint=eastwest;" vertex="1" parent="EGsElNwf6ltDPUh6iHsV-26">
          <mxGeometry y="52" width="160" height="8" as="geometry" />
        </mxCell>
        <mxCell id="EGsElNwf6ltDPUh6iHsV-29" value="+ method(type): type" style="text;strokeColor=none;fillColor=none;align=left;verticalAlign=top;spacingLeft=4;spacingRight=4;overflow=hidden;rotatable=0;points=[[0,0.5],[1,0.5]];portConstraint=eastwest;" vertex="1" parent="EGsElNwf6ltDPUh6iHsV-26">
          <mxGeometry y="60" width="160" height="26" as="geometry" />
        </mxCell>
        <mxCell id="EGsElNwf6ltDPUh6iHsV-30" value="Employe" style="swimlane;fontStyle=1;align=center;verticalAlign=top;childLayout=stackLayout;horizontal=1;startSize=26;horizontalStack=0;resizeParent=1;resizeParentMax=0;resizeLast=0;collapsible=1;marginBottom=0;" vertex="1" parent="1">
          <mxGeometry x="590" y="240" width="160" height="86" as="geometry" />
        </mxCell>
        <mxCell id="EGsElNwf6ltDPUh6iHsV-31" value=" " style="text;strokeColor=none;fillColor=none;align=left;verticalAlign=top;spacingLeft=4;spacingRight=4;overflow=hidden;rotatable=0;points=[[0,0.5],[1,0.5]];portConstraint=eastwest;" vertex="1" parent="EGsElNwf6ltDPUh6iHsV-30">
          <mxGeometry y="26" width="160" height="26" as="geometry" />
        </mxCell>
        <mxCell id="EGsElNwf6ltDPUh6iHsV-32" value="" style="line;strokeWidth=1;fillColor=none;align=left;verticalAlign=middle;spacingTop=-1;spacingLeft=3;spacingRight=3;rotatable=0;labelPosition=right;points=[];portConstraint=eastwest;" vertex="1" parent="EGsElNwf6ltDPUh6iHsV-30">
          <mxGeometry y="52" width="160" height="8" as="geometry" />
        </mxCell>
        <mxCell id="EGsElNwf6ltDPUh6iHsV-33" value="+ method(type): type" style="text;strokeColor=none;fillColor=none;align=left;verticalAlign=top;spacingLeft=4;spacingRight=4;overflow=hidden;rotatable=0;points=[[0,0.5],[1,0.5]];portConstraint=eastwest;" vertex="1" parent="EGsElNwf6ltDPUh6iHsV-30">
          <mxGeometry y="60" width="160" height="26" as="geometry" />
        </mxCell>
        <mxCell id="EGsElNwf6ltDPUh6iHsV-35" value="est composée de &amp;gt; " style="endArrow=none;html=1;endSize=12;startArrow=diamond;startSize=14;startFill=1;edgeStyle=orthogonalEdgeStyle;exitX=0.5;exitY=1.038;exitDx=0;exitDy=0;exitPerimeter=0;entryX=0.5;entryY=0;entryDx=0;entryDy=0;endFill=0;" edge="1" parent="1" source="EGsElNwf6ltDPUh6iHsV-5" target="EGsElNwf6ltDPUh6iHsV-6">
          <mxGeometry relative="1" as="geometry">
            <mxPoint x="380" y="370" as="sourcePoint" />
            <mxPoint x="540" y="370" as="targetPoint" />
          </mxGeometry>
        </mxCell>
        <mxCell id="EGsElNwf6ltDPUh6iHsV-36" value="&amp;nbsp;1..1" style="edgeLabel;resizable=0;html=1;align=left;verticalAlign=top;" connectable="0" vertex="1" parent="EGsElNwf6ltDPUh6iHsV-35">
          <mxGeometry x="-1" relative="1" as="geometry">
            <mxPoint x="10" as="offset" />
          </mxGeometry>
        </mxCell>
        <mxCell id="EGsElNwf6ltDPUh6iHsV-37" value="0..*" style="edgeLabel;resizable=0;html=1;align=right;verticalAlign=top;" connectable="0" vertex="1" parent="EGsElNwf6ltDPUh6iHsV-35">
          <mxGeometry x="1" relative="1" as="geometry">
            <mxPoint x="30" y="-29.99" as="offset" />
          </mxGeometry>
        </mxCell>
        <mxCell id="EGsElNwf6ltDPUh6iHsV-38" value="Extends" style="endArrow=block;endSize=16;endFill=0;html=1;exitX=0.5;exitY=0;exitDx=0;exitDy=0;entryX=0.231;entryY=1.077;entryDx=0;entryDy=0;entryPerimeter=0;" edge="1" parent="1" source="EGsElNwf6ltDPUh6iHsV-22" target="EGsElNwf6ltDPUh6iHsV-21">
          <mxGeometry width="160" relative="1" as="geometry">
            <mxPoint x="-380" y="520" as="sourcePoint" />
            <mxPoint x="-220" y="520" as="targetPoint" />
          </mxGeometry>
        </mxCell>
        <mxCell id="EGsElNwf6ltDPUh6iHsV-39" value="Extends" style="endArrow=block;endSize=16;endFill=0;html=1;exitX=0.5;exitY=0;exitDx=0;exitDy=0;entryX=0.756;entryY=1.077;entryDx=0;entryDy=0;entryPerimeter=0;" edge="1" parent="1" source="EGsElNwf6ltDPUh6iHsV-26" target="EGsElNwf6ltDPUh6iHsV-21">
          <mxGeometry width="160" relative="1" as="geometry">
            <mxPoint x="-160" y="640" as="sourcePoint" />
            <mxPoint x="-40" y="566.988" as="targetPoint" />
          </mxGeometry>
        </mxCell>
        <mxCell id="EGsElNwf6ltDPUh6iHsV-40" value="possède &amp;gt;" style="endArrow=open;html=1;endSize=12;startArrow=none;startSize=14;startFill=0;edgeStyle=orthogonalEdgeStyle;exitX=0.5;exitY=1;exitDx=0;exitDy=0;entryX=0.5;entryY=0;entryDx=0;entryDy=0;endFill=0;" edge="1" parent="1" source="EGsElNwf6ltDPUh6iHsV-6" target="EGsElNwf6ltDPUh6iHsV-14">
          <mxGeometry relative="1" as="geometry">
            <mxPoint x="500" y="600" as="sourcePoint" />
            <mxPoint x="660" y="600" as="targetPoint" />
          </mxGeometry>
        </mxCell>
        <mxCell id="EGsElNwf6ltDPUh6iHsV-41" value="0.1" style="edgeLabel;resizable=0;html=1;align=left;verticalAlign=top;" connectable="0" vertex="1" parent="EGsElNwf6ltDPUh6iHsV-40">
          <mxGeometry x="-1" relative="1" as="geometry">
            <mxPoint x="10" as="offset" />
          </mxGeometry>
        </mxCell>
        <mxCell id="EGsElNwf6ltDPUh6iHsV-42" value="1" style="edgeLabel;resizable=0;html=1;align=right;verticalAlign=top;" connectable="0" vertex="1" parent="EGsElNwf6ltDPUh6iHsV-40">
          <mxGeometry x="1" relative="1" as="geometry">
            <mxPoint x="20" y="-24" as="offset" />
          </mxGeometry>
        </mxCell>
        <mxCell id="EGsElNwf6ltDPUh6iHsV-43" value="possède &amp;gt;" style="endArrow=none;html=1;endSize=12;startArrow=diamondThin;startSize=14;startFill=0;edgeStyle=orthogonalEdgeStyle;exitX=1;exitY=0.5;exitDx=0;exitDy=0;endFill=0;entryX=-0.006;entryY=0.269;entryDx=0;entryDy=0;entryPerimeter=0;" edge="1" parent="1" source="EGsElNwf6ltDPUh6iHsV-7" target="EGsElNwf6ltDPUh6iHsV-92">
          <mxGeometry relative="1" as="geometry">
            <mxPoint x="450" y="556" as="sourcePoint" />
            <mxPoint x="440" y="440" as="targetPoint" />
          </mxGeometry>
        </mxCell>
        <mxCell id="EGsElNwf6ltDPUh6iHsV-44" value="1" style="edgeLabel;resizable=0;html=1;align=left;verticalAlign=top;" connectable="0" vertex="1" parent="EGsElNwf6ltDPUh6iHsV-43">
          <mxGeometry x="-1" relative="1" as="geometry">
            <mxPoint x="10" as="offset" />
          </mxGeometry>
        </mxCell>
        <mxCell id="EGsElNwf6ltDPUh6iHsV-45" value="0..*" style="edgeLabel;resizable=0;html=1;align=right;verticalAlign=top;" connectable="0" vertex="1" parent="EGsElNwf6ltDPUh6iHsV-43">
          <mxGeometry x="1" relative="1" as="geometry">
            <mxPoint x="-10" y="1" as="offset" />
          </mxGeometry>
        </mxCell>
        <mxCell id="EGsElNwf6ltDPUh6iHsV-47" value="Conseiller" style="swimlane;fontStyle=1;align=center;verticalAlign=top;childLayout=stackLayout;horizontal=1;startSize=26;horizontalStack=0;resizeParent=1;resizeParentMax=0;resizeLast=0;collapsible=1;marginBottom=0;" vertex="1" parent="1">
          <mxGeometry x="720" y="400" width="200" height="116" as="geometry" />
        </mxCell>
        <mxCell id="EGsElNwf6ltDPUh6iHsV-48" value="- dateEmbauche: Date " style="text;strokeColor=none;fillColor=none;align=left;verticalAlign=top;spacingLeft=4;spacingRight=4;overflow=hidden;rotatable=0;points=[[0,0.5],[1,0.5]];portConstraint=eastwest;" vertex="1" parent="EGsElNwf6ltDPUh6iHsV-47">
          <mxGeometry y="26" width="200" height="26" as="geometry" />
        </mxCell>
        <mxCell id="EGsElNwf6ltDPUh6iHsV-49" value="" style="line;strokeWidth=1;fillColor=none;align=left;verticalAlign=middle;spacingTop=-1;spacingLeft=3;spacingRight=3;rotatable=0;labelPosition=right;points=[];portConstraint=eastwest;" vertex="1" parent="EGsElNwf6ltDPUh6iHsV-47">
          <mxGeometry y="52" width="200" height="8" as="geometry" />
        </mxCell>
        <mxCell id="EGsElNwf6ltDPUh6iHsV-50" value="+ changerAgence(Agence): void&#xa;" style="text;strokeColor=none;fillColor=none;align=left;verticalAlign=top;spacingLeft=4;spacingRight=4;overflow=hidden;rotatable=0;points=[[0,0.5],[1,0.5]];portConstraint=eastwest;" vertex="1" parent="EGsElNwf6ltDPUh6iHsV-47">
          <mxGeometry y="60" width="200" height="30" as="geometry" />
        </mxCell>
        <mxCell id="EGsElNwf6ltDPUh6iHsV-92" value="- deleguerDossier(Conseiller): void&#xa;" style="text;strokeColor=none;fillColor=none;align=left;verticalAlign=top;spacingLeft=4;spacingRight=4;overflow=hidden;rotatable=0;points=[[0,0.5],[1,0.5]];portConstraint=eastwest;" vertex="1" parent="EGsElNwf6ltDPUh6iHsV-47">
          <mxGeometry y="90" width="200" height="26" as="geometry" />
        </mxCell>
        <mxCell id="EGsElNwf6ltDPUh6iHsV-51" value="Extends" style="endArrow=block;endSize=16;endFill=0;html=1;exitX=0.5;exitY=0;exitDx=0;exitDy=0;entryX=0.25;entryY=1;entryDx=0;entryDy=0;" edge="1" parent="1" source="EGsElNwf6ltDPUh6iHsV-10" target="EGsElNwf6ltDPUh6iHsV-30">
          <mxGeometry width="160" relative="1" as="geometry">
            <mxPoint x="555" y="629.01" as="sourcePoint" />
            <mxPoint x="675" y="555.998" as="targetPoint" />
          </mxGeometry>
        </mxCell>
        <mxCell id="EGsElNwf6ltDPUh6iHsV-52" value="Extends" style="endArrow=block;endSize=16;endFill=0;html=1;exitX=0.5;exitY=0;exitDx=0;exitDy=0;entryX=0.738;entryY=1.077;entryDx=0;entryDy=0;entryPerimeter=0;" edge="1" parent="1" source="EGsElNwf6ltDPUh6iHsV-47" target="EGsElNwf6ltDPUh6iHsV-33">
          <mxGeometry width="160" relative="1" as="geometry">
            <mxPoint x="720" y="627" as="sourcePoint" />
            <mxPoint x="678" y="558" as="targetPoint" />
          </mxGeometry>
        </mxCell>
        <mxCell id="EGsElNwf6ltDPUh6iHsV-53" value="&amp;lt; possède" style="endArrow=none;html=1;endSize=12;startArrow=diamondThin;startSize=14;startFill=0;edgeStyle=orthogonalEdgeStyle;exitX=0;exitY=0.5;exitDx=0;exitDy=0;entryX=1;entryY=0.5;entryDx=0;entryDy=0;endFill=0;" edge="1" parent="1" source="EGsElNwf6ltDPUh6iHsV-7" target="EGsElNwf6ltDPUh6iHsV-19">
          <mxGeometry relative="1" as="geometry">
            <mxPoint x="10" y="430" as="sourcePoint" />
            <mxPoint x="210" y="430" as="targetPoint" />
          </mxGeometry>
        </mxCell>
        <mxCell id="EGsElNwf6ltDPUh6iHsV-54" value="1" style="edgeLabel;resizable=0;html=1;align=left;verticalAlign=top;" connectable="0" vertex="1" parent="EGsElNwf6ltDPUh6iHsV-53">
          <mxGeometry x="-1" relative="1" as="geometry">
            <mxPoint x="-30" as="offset" />
          </mxGeometry>
        </mxCell>
        <mxCell id="EGsElNwf6ltDPUh6iHsV-55" value="0..*" style="edgeLabel;resizable=0;html=1;align=right;verticalAlign=top;" connectable="0" vertex="1" parent="EGsElNwf6ltDPUh6iHsV-53">
          <mxGeometry x="1" relative="1" as="geometry">
            <mxPoint x="30" y="1" as="offset" />
          </mxGeometry>
        </mxCell>
        <mxCell id="EGsElNwf6ltDPUh6iHsV-56" value="possède &amp;gt;" style="endArrow=none;html=1;endSize=12;startArrow=diamond;startSize=14;startFill=1;edgeStyle=orthogonalEdgeStyle;exitX=1;exitY=0.5;exitDx=0;exitDy=0;entryX=0;entryY=0;entryDx=0;entryDy=0;endFill=0;" edge="1" parent="1" source="EGsElNwf6ltDPUh6iHsV-3" target="EGsElNwf6ltDPUh6iHsV-10">
          <mxGeometry relative="1" as="geometry">
            <mxPoint x="400" y="584" as="sourcePoint" />
            <mxPoint x="600" y="584" as="targetPoint" />
            <Array as="points">
              <mxPoint x="490" y="279" />
            </Array>
          </mxGeometry>
        </mxCell>
        <mxCell id="EGsElNwf6ltDPUh6iHsV-57" value="1" style="edgeLabel;resizable=0;html=1;align=left;verticalAlign=top;" connectable="0" vertex="1" parent="EGsElNwf6ltDPUh6iHsV-56">
          <mxGeometry x="-1" relative="1" as="geometry">
            <mxPoint x="10" as="offset" />
          </mxGeometry>
        </mxCell>
        <mxCell id="EGsElNwf6ltDPUh6iHsV-58" value="1" style="edgeLabel;resizable=0;html=1;align=right;verticalAlign=top;" connectable="0" vertex="1" parent="EGsElNwf6ltDPUh6iHsV-56">
          <mxGeometry x="1" relative="1" as="geometry">
            <mxPoint x="-10" y="1" as="offset" />
          </mxGeometry>
        </mxCell>
        <mxCell id="EGsElNwf6ltDPUh6iHsV-59" value="Client" style="swimlane;fontStyle=1;align=center;verticalAlign=top;childLayout=stackLayout;horizontal=1;startSize=26;horizontalStack=0;resizeParent=1;resizeParentMax=0;resizeLast=0;collapsible=1;marginBottom=0;" vertex="1" parent="1">
          <mxGeometry x="240" y="800" width="160" height="86" as="geometry" />
        </mxCell>
        <mxCell id="EGsElNwf6ltDPUh6iHsV-60" value=" " style="text;strokeColor=none;fillColor=none;align=left;verticalAlign=top;spacingLeft=4;spacingRight=4;overflow=hidden;rotatable=0;points=[[0,0.5],[1,0.5]];portConstraint=eastwest;" vertex="1" parent="EGsElNwf6ltDPUh6iHsV-59">
          <mxGeometry y="26" width="160" height="26" as="geometry" />
        </mxCell>
        <mxCell id="EGsElNwf6ltDPUh6iHsV-61" value="" style="line;strokeWidth=1;fillColor=none;align=left;verticalAlign=middle;spacingTop=-1;spacingLeft=3;spacingRight=3;rotatable=0;labelPosition=right;points=[];portConstraint=eastwest;" vertex="1" parent="EGsElNwf6ltDPUh6iHsV-59">
          <mxGeometry y="52" width="160" height="8" as="geometry" />
        </mxCell>
        <mxCell id="EGsElNwf6ltDPUh6iHsV-62" value="+ method(type): type" style="text;strokeColor=none;fillColor=none;align=left;verticalAlign=top;spacingLeft=4;spacingRight=4;overflow=hidden;rotatable=0;points=[[0,0.5],[1,0.5]];portConstraint=eastwest;" vertex="1" parent="EGsElNwf6ltDPUh6iHsV-59">
          <mxGeometry y="60" width="160" height="26" as="geometry" />
        </mxCell>
        <mxCell id="EGsElNwf6ltDPUh6iHsV-63" value="&amp;lt; possède" style="endArrow=none;html=1;endSize=12;startArrow=diamond;startSize=14;startFill=1;edgeStyle=orthogonalEdgeStyle;exitX=0;exitY=0.5;exitDx=0;exitDy=0;entryX=0.481;entryY=1.077;entryDx=0;entryDy=0;endFill=0;entryPerimeter=0;" edge="1" parent="1" source="EGsElNwf6ltDPUh6iHsV-60" target="EGsElNwf6ltDPUh6iHsV-21">
          <mxGeometry relative="1" as="geometry">
            <mxPoint x="160" y="842.5" as="sourcePoint" />
            <mxPoint x="-40" y="842.5" as="targetPoint" />
            <Array as="points">
              <mxPoint x="-43" y="839" />
            </Array>
          </mxGeometry>
        </mxCell>
        <mxCell id="EGsElNwf6ltDPUh6iHsV-64" value="1" style="edgeLabel;resizable=0;html=1;align=left;verticalAlign=top;" connectable="0" vertex="1" parent="EGsElNwf6ltDPUh6iHsV-63">
          <mxGeometry x="-1" relative="1" as="geometry">
            <mxPoint x="-30" as="offset" />
          </mxGeometry>
        </mxCell>
        <mxCell id="EGsElNwf6ltDPUh6iHsV-65" value="0..*" style="edgeLabel;resizable=0;html=1;align=right;verticalAlign=top;" connectable="0" vertex="1" parent="EGsElNwf6ltDPUh6iHsV-63">
          <mxGeometry x="1" relative="1" as="geometry">
            <mxPoint x="30" y="1" as="offset" />
          </mxGeometry>
        </mxCell>
        <mxCell id="EGsElNwf6ltDPUh6iHsV-66" value="&amp;lt; conseille" style="endArrow=none;html=1;endSize=12;startArrow=none;startSize=14;startFill=0;edgeStyle=orthogonalEdgeStyle;endFill=0;exitX=1;exitY=0.5;exitDx=0;exitDy=0;" edge="1" parent="1" source="EGsElNwf6ltDPUh6iHsV-60">
          <mxGeometry relative="1" as="geometry">
            <mxPoint x="520" y="840" as="sourcePoint" />
            <mxPoint x="830" y="520" as="targetPoint" />
            <Array as="points">
              <mxPoint x="826" y="839" />
            </Array>
          </mxGeometry>
        </mxCell>
        <mxCell id="EGsElNwf6ltDPUh6iHsV-67" value="0..*" style="edgeLabel;resizable=0;html=1;align=left;verticalAlign=top;" connectable="0" vertex="1" parent="EGsElNwf6ltDPUh6iHsV-66">
          <mxGeometry x="-1" relative="1" as="geometry">
            <mxPoint x="14" y="-29" as="offset" />
          </mxGeometry>
        </mxCell>
        <mxCell id="EGsElNwf6ltDPUh6iHsV-68" value="1" style="edgeLabel;resizable=0;html=1;align=right;verticalAlign=top;" connectable="0" vertex="1" parent="EGsElNwf6ltDPUh6iHsV-66">
          <mxGeometry x="1" relative="1" as="geometry">
            <mxPoint x="30" y="1" as="offset" />
          </mxGeometry>
        </mxCell>
        <mxCell id="EGsElNwf6ltDPUh6iHsV-71" value="possède " style="endArrow=open;html=1;endSize=12;startArrow=none;startSize=14;startFill=0;edgeStyle=orthogonalEdgeStyle;exitX=0.5;exitY=0;exitDx=0;exitDy=0;entryX=0.494;entryY=1;entryDx=0;entryDy=0;endFill=0;entryPerimeter=0;" edge="1" parent="1" source="EGsElNwf6ltDPUh6iHsV-59" target="EGsElNwf6ltDPUh6iHsV-17">
          <mxGeometry relative="1" as="geometry">
            <mxPoint x="520" y="640" as="sourcePoint" />
            <mxPoint x="520" y="724" as="targetPoint" />
          </mxGeometry>
        </mxCell>
        <mxCell id="EGsElNwf6ltDPUh6iHsV-72" value="0..*" style="edgeLabel;resizable=0;html=1;align=left;verticalAlign=top;" connectable="0" vertex="1" parent="EGsElNwf6ltDPUh6iHsV-71">
          <mxGeometry x="-1" relative="1" as="geometry">
            <mxPoint x="10" y="-30" as="offset" />
          </mxGeometry>
        </mxCell>
        <mxCell id="EGsElNwf6ltDPUh6iHsV-73" value="1" style="edgeLabel;resizable=0;html=1;align=right;verticalAlign=top;" connectable="0" vertex="1" parent="EGsElNwf6ltDPUh6iHsV-71">
          <mxGeometry x="1" relative="1" as="geometry">
            <mxPoint x="20" y="4" as="offset" />
          </mxGeometry>
        </mxCell>
        <mxCell id="EGsElNwf6ltDPUh6iHsV-74" value="Personne" style="swimlane;fontStyle=3;align=center;verticalAlign=top;childLayout=stackLayout;horizontal=1;startSize=26;horizontalStack=0;resizeParent=1;resizeParentMax=0;resizeLast=0;collapsible=1;marginBottom=0;" vertex="1" parent="1">
          <mxGeometry x="970" y="580" width="160" height="112" as="geometry" />
        </mxCell>
        <mxCell id="EGsElNwf6ltDPUh6iHsV-75" value="- nom : String" style="text;strokeColor=none;fillColor=none;align=left;verticalAlign=top;spacingLeft=4;spacingRight=4;overflow=hidden;rotatable=0;points=[[0,0.5],[1,0.5]];portConstraint=eastwest;" vertex="1" parent="EGsElNwf6ltDPUh6iHsV-74">
          <mxGeometry y="26" width="160" height="26" as="geometry" />
        </mxCell>
        <mxCell id="EGsElNwf6ltDPUh6iHsV-86" value="- prenom : String" style="text;strokeColor=none;fillColor=none;align=left;verticalAlign=top;spacingLeft=4;spacingRight=4;overflow=hidden;rotatable=0;points=[[0,0.5],[1,0.5]];portConstraint=eastwest;" vertex="1" parent="EGsElNwf6ltDPUh6iHsV-74">
          <mxGeometry y="52" width="160" height="26" as="geometry" />
        </mxCell>
        <mxCell id="EGsElNwf6ltDPUh6iHsV-76" value="" style="line;strokeWidth=1;fillColor=none;align=left;verticalAlign=middle;spacingTop=-1;spacingLeft=3;spacingRight=3;rotatable=0;labelPosition=right;points=[];portConstraint=eastwest;" vertex="1" parent="EGsElNwf6ltDPUh6iHsV-74">
          <mxGeometry y="78" width="160" height="8" as="geometry" />
        </mxCell>
        <mxCell id="EGsElNwf6ltDPUh6iHsV-77" value="+ method(type): type" style="text;strokeColor=none;fillColor=none;align=left;verticalAlign=top;spacingLeft=4;spacingRight=4;overflow=hidden;rotatable=0;points=[[0,0.5],[1,0.5]];portConstraint=eastwest;" vertex="1" parent="EGsElNwf6ltDPUh6iHsV-74">
          <mxGeometry y="86" width="160" height="26" as="geometry" />
        </mxCell>
        <mxCell id="EGsElNwf6ltDPUh6iHsV-81" value="extends &amp;gt;" style="endArrow=block;html=1;endSize=12;startArrow=none;startSize=14;startFill=0;edgeStyle=orthogonalEdgeStyle;exitX=0.444;exitY=1.038;exitDx=0;exitDy=0;entryX=0.463;entryY=1;entryDx=0;entryDy=0;endFill=0;exitPerimeter=0;entryPerimeter=0;" edge="1" parent="1" source="EGsElNwf6ltDPUh6iHsV-62" target="EGsElNwf6ltDPUh6iHsV-77">
          <mxGeometry relative="1" as="geometry">
            <mxPoint x="890" y="920" as="sourcePoint" />
            <mxPoint x="890" y="1004" as="targetPoint" />
          </mxGeometry>
        </mxCell>
        <mxCell id="EGsElNwf6ltDPUh6iHsV-83" value="1" style="edgeLabel;resizable=0;html=1;align=right;verticalAlign=top;" connectable="0" vertex="1" parent="EGsElNwf6ltDPUh6iHsV-81">
          <mxGeometry x="1" relative="1" as="geometry">
            <mxPoint x="20" y="-24" as="offset" />
          </mxGeometry>
        </mxCell>
        <mxCell id="EGsElNwf6ltDPUh6iHsV-84" value="extends &amp;gt;" style="endArrow=block;html=1;endSize=12;startArrow=none;startSize=14;startFill=0;edgeStyle=orthogonalEdgeStyle;entryX=0.463;entryY=1;entryDx=0;entryDy=0;endFill=0;entryPerimeter=0;exitX=1.006;exitY=-0.077;exitDx=0;exitDy=0;exitPerimeter=0;" edge="1" parent="1">
          <mxGeometry relative="1" as="geometry">
            <mxPoint x="750.96" y="289.99800000000005" as="sourcePoint" />
            <mxPoint x="1054.08" y="580" as="targetPoint" />
          </mxGeometry>
        </mxCell>
        <mxCell id="EGsElNwf6ltDPUh6iHsV-88" value="possède &amp;gt;" style="endArrow=open;html=1;endSize=12;startArrow=none;startSize=14;startFill=0;edgeStyle=orthogonalEdgeStyle;exitX=0;exitY=0.5;exitDx=0;exitDy=0;entryX=0;entryY=0.5;entryDx=0;entryDy=0;endFill=0;" edge="1" parent="1" source="EGsElNwf6ltDPUh6iHsV-3" target="EGsElNwf6ltDPUh6iHsV-15">
          <mxGeometry relative="1" as="geometry">
            <mxPoint x="140" y="326" as="sourcePoint" />
            <mxPoint x="140" y="410" as="targetPoint" />
            <Array as="points">
              <mxPoint x="170" y="279" />
              <mxPoint x="170" y="679" />
            </Array>
          </mxGeometry>
        </mxCell>
        <mxCell id="EGsElNwf6ltDPUh6iHsV-89" value="0.1" style="edgeLabel;resizable=0;html=1;align=left;verticalAlign=top;" connectable="0" vertex="1" parent="EGsElNwf6ltDPUh6iHsV-88">
          <mxGeometry x="-1" relative="1" as="geometry">
            <mxPoint x="-30" as="offset" />
          </mxGeometry>
        </mxCell>
        <mxCell id="EGsElNwf6ltDPUh6iHsV-90" value="1" style="edgeLabel;resizable=0;html=1;align=right;verticalAlign=top;" connectable="0" vertex="1" parent="EGsElNwf6ltDPUh6iHsV-88">
          <mxGeometry x="1" relative="1" as="geometry">
            <mxPoint x="-10" y="-29" as="offset" />
          </mxGeometry>
        </mxCell>
      </root>
    </mxGraphModel>
  </diagram>
</mxfile>
